<svg width="31" height="39" viewBox="0 0 31 39" fill="currentColor" xmlns="http://www.w3.org/2000/svg">
<path fill-rule="evenodd" clip-rule="evenodd" d="M21.4627 11.4609C19.9348 11.4609 18.6083 11.9811 17.4329 12.449L17.4315 12.4496L17.4016 12.4614C17.1401 12.5649 16.8446 12.682 16.5801 12.7737C16.4422 12.8214 16.3014 12.8664 16.1697 12.9001C16.0497 12.9308 15.8883 12.9655 15.7264 12.9655C15.3827 12.9655 14.9796 12.8599 14.6302 12.7518C14.2614 12.6376 13.8554 12.4881 13.4793 12.3497L13.4754 12.3483C12.3534 11.9343 11.2461 11.5364 10.2459 11.5364C9.10494 11.5364 6.96619 11.9801 5.12822 13.457C3.32578 14.9053 1.75 17.396 1.75 21.6306C1.75 24.2044 2.78928 28.1211 4.48762 31.4021C5.33355 33.0364 6.32111 34.4694 7.38452 35.4854C8.45157 36.5048 9.52947 37.0445 10.5746 37.0512H10.6065C11.7576 37.0512 12.787 36.6729 13.8179 36.2881L13.8248 36.2855C14.1891 36.149 14.5736 36.0048 14.9392 35.8961C15.3032 35.7879 15.699 35.6987 16.0839 35.6987C17.3345 35.6987 18.1149 36.0307 18.8947 36.3625L18.9071 36.3678C19.6603 36.688 20.4005 36.9978 21.4556 36.9978C22.4605 36.9978 23.4427 36.5328 24.3865 35.7277C25.3295 34.9233 26.1787 33.8249 26.8972 32.6788C27.6129 31.5373 28.1806 30.3782 28.569 29.4782C28.7629 29.0287 28.9101 28.6487 29.0072 28.3732C29.0561 28.2347 29.0904 28.1281 29.1114 28.0553C29.1142 28.0457 29.1166 28.0371 29.1187 28.0295C29.1096 27.9552 29.0794 27.9032 29.0187 27.8399C28.9142 27.731 28.7594 27.6326 28.4972 27.4748L28.4802 27.4646C27.9264 27.1315 26.9871 26.5664 26.1949 25.5911C25.3801 24.588 24.745 23.184 24.745 21.2177C24.745 17.8237 27.0307 16.0994 28.1484 15.2562L28.1722 15.2382L28.3835 15.0788L28.2364 14.8578C26.1553 11.7326 22.6747 11.4609 21.4727 11.4609H21.4627ZM16.9084 11.0433C18.0625 10.5838 19.6269 9.96094 21.4627 9.96094H21.4718C22.7935 9.96094 26.9656 10.2431 29.4849 14.0264L30.4154 15.4247L29.0758 16.4356C27.9689 17.2708 26.245 18.5956 26.245 21.2177C26.245 22.8286 26.7545 23.901 27.3592 24.6454C27.9783 25.4076 28.7222 25.8596 29.2705 26.1895C29.2895 26.201 29.3097 26.213 29.3309 26.2256C29.768 26.4858 30.6217 26.9938 30.6217 28.084C30.6217 28.1861 30.6015 28.2778 30.5941 28.3112C30.5828 28.3624 30.5682 28.4171 30.5525 28.4715C30.5208 28.5812 30.4766 28.717 30.4218 28.8722C30.3118 29.1839 30.1519 29.5959 29.9462 30.0725C29.5353 31.0248 28.9335 32.2548 28.1681 33.4755C27.4057 34.6917 26.4623 35.9285 25.36 36.8689C24.2585 37.8086 22.9428 38.4978 21.4556 38.4978C20.0832 38.4978 19.1042 38.0815 18.3395 37.7564L18.3202 37.7482C17.5654 37.4271 17.0199 37.1987 16.0839 37.1987C15.9129 37.1987 15.6792 37.241 15.3667 37.3339C15.0582 37.4257 14.7217 37.5512 14.344 37.6928L14.2967 37.7105C13.301 38.0822 12.045 38.5512 10.6065 38.5512H10.5722L10.5679 38.5512C8.99427 38.5421 7.5666 37.7338 6.34836 36.57C5.12585 35.4021 4.04777 33.8155 3.1555 32.0917C1.37743 28.6566 0.25 24.503 0.25 21.6306C0.25 16.9687 2.01115 14.0373 4.18867 12.2877C6.33065 10.5666 8.81486 10.0364 10.2459 10.0364C11.5438 10.0364 12.8906 10.5335 13.9449 10.9227L15.5 11.502"/>
<path fill-rule="evenodd" clip-rule="evenodd" d="M16.1286 7.96239C18.5577 7.72534 20.9896 5.38917 21.2261 1.8361C20.086 2.0833 18.849 2.84943 17.8572 3.96055C16.8099 5.13388 16.1414 6.57445 16.1286 7.96239ZM16.7382 2.96169C18.1324 1.39968 20.0982 0.25 21.9911 0.25H22.7206L22.7408 0.979208C22.88 5.99681 19.2644 9.70837 15.3851 9.47208L14.7775 9.43507L14.6887 8.8329C14.3706 6.67639 15.3372 4.53128 16.7382 2.96169Z"/>
</svg>
