<svg xmlns="http://www.w3.org/2000/svg" xmlns:xlink="http://www.w3.org/1999/xlink" width="122.162" height="121.748"><defs><path id="a" d="M0 0h122.162v121.748H0z"/></defs><clipPath id="b"><use xlink:href="#a" overflow="visible"/></clipPath><path d="M81.274 20.694c0 11.153-9.04 20.194-20.193 20.194-11.153 0-20.194-9.04-20.194-20.194S49.928.5 61.081.5c11.152 0 20.193 9.041 20.193 20.194" clip-path="url(#b)" fill="#00b7f4"/><circle cx="61.081" cy="20.694" r="20.194" clip-path="url(#b)" fill="none" stroke="#00b7f4" stroke-miterlimit="10"/><defs><path id="c" d="M61.081 40.888s20.194-.026 20.194 20.277c0-.21.107-18.973 20.194-20.192 0 0-20.027-.085-20.193-20.029-.022 2.22-.843 18.55-20.195 19.944m20.195-19.944c.001-.163-.001-.25-.001-.25l.001.25"/></defs><clipPath id="d"><use xlink:href="#c" overflow="visible"/></clipPath><linearGradient id="e" gradientUnits="userSpaceOnUse" y1="121.748" x2="1" y2="121.748" gradientTransform="scale(-28.61876 28.61876) rotate(-45 -146.406 65.62)"><stop offset="0" stop-color="#3f7bbf"/><stop offset="1" stop-color="#00b7f4"/></linearGradient><path clip-path="url(#d)" fill="url(#e)" d="M81.275 81.361l-40.43-40.43L81.275.5l40.43 40.43z"/><defs><path id="f" d="M0 0h122.162v121.748H0z"/></defs><clipPath id="g"><use xlink:href="#f" overflow="visible"/></clipPath><linearGradient id="h" gradientUnits="userSpaceOnUse" y1="121.748" x2="1" y2="121.748" gradientTransform="scale(-29.3711 29.3711) rotate(-45 -146.414 65.515)"><stop offset="0" stop-color="#3f7bbf"/><stop offset="1" stop-color="#00b7f4"/></linearGradient><path d="M61.081 40.888c.091 0 20.193.023 20.193 20.279 0-.023.006-18.969 20.194-20.194 0 0-20.194-.085-20.194-20.279 0 0 .002.051.002.15 0 1.765-.517 18.627-20.195 20.044 19.678-1.417 20.195-18.28 20.195-20.045 0-.098-.002-.149-.002-.149 0 20.194 20.194 20.279 20.194 20.279-20.188 1.225-20.194 20.171-20.194 20.194 0-20.256-20.102-20.279-20.193-20.279z" clip-path="url(#g)" fill="url(#h)"/><path d="M40.887 61.167c0 11.152-9.04 20.193-20.193 20.193C9.541 81.36.5 72.32.5 61.167c0-11.153 9.041-20.194 20.194-20.194 11.152 0 20.193 9.041 20.193 20.194" clip-path="url(#g)"/><circle cx="20.694" cy="61.167" r="20.194" clip-path="url(#g)" fill="none" stroke="#000" stroke-miterlimit="10"/><defs><path id="i" d="M81.276 101.939v-.001.001M61.081 81.361s19.124.052 20.194 20.194l.001.383c0-.138.06-20.686 20.193-20.577 0 0-19.079-.411-20.194-19.789-.048 2.844-1.136 19.689-20.194 19.789m20.194-19.789c.004-.262 0-.405 0-.405v.405z"/></defs><clipPath id="j"><use xlink:href="#i" overflow="visible"/></clipPath><linearGradient id="k" gradientUnits="userSpaceOnUse" y1="121.748" x2="1" y2="121.748" gradientTransform="matrix(40.38724 0 0 -40.38724 61.08 4998.619)"><stop offset="0" stop-color="#445fa9"/><stop offset="1" stop-color="#3f7bbf"/></linearGradient><path clip-path="url(#j)" fill="url(#k)" d="M61.081 61.167h40.388v40.772H61.081z"/><defs><path id="l" d="M0 0h122.162v121.748H0z"/></defs><clipPath id="m"><use xlink:href="#l" overflow="visible"/></clipPath><linearGradient id="n" gradientUnits="userSpaceOnUse" y1="121.748" x2="1" y2="121.748" gradientTransform="matrix(40.4006 0 0 -40.4006 61.078 5000.24)"><stop offset="0" stop-color="#445fa9"/><stop offset="1" stop-color="#3f7bbf"/></linearGradient><path d="M81.274 61.572c1.115 19.378 20.194 19.789 20.194 19.789h-.158c-20.026 0-20.034 20.545-20.034 20.578l-.002-.385c-1.069-20.141-20.193-20.193-20.193-20.193 19.642-.103 20.195-17.992 20.195-20.01 0-.12-.002-.184-.002-.184s.002.064.002.184c0 2.018-.553 19.907-20.195 20.01 0 0 19.124.052 20.193 20.193l.002.385c0-.033.008-20.578 20.034-20.578h.158S82.39 80.95 81.274 61.572z" clip-path="url(#m)" fill="url(#n)"/><path d="M121.662 61.167c0 11.152-9.041 20.193-20.193 20.193-11.153 0-20.194-9.04-20.194-20.193 0-11.153 9.04-20.194 20.194-20.194 11.152 0 20.193 9.041 20.193 20.194" clip-path="url(#m)" fill="#3f7bbf"/><circle cx="101.468" cy="61.167" r="20.194" clip-path="url(#m)" fill="none" stroke="#3f7bbf" stroke-miterlimit="10"/><path d="M81.274 101.055c0 11.151-9.04 20.192-20.193 20.192-11.153 0-20.194-9.04-20.194-20.192 0-11.153 9.041-20.194 20.194-20.194 11.152 0 20.193 9.04 20.193 20.194" clip-path="url(#m)" fill="#445fa9"/><circle cx="61.081" cy="101.054" r="20.194" clip-path="url(#m)" fill="none" stroke="#445fa9" stroke-miterlimit="10"/></svg>