<svg xmlns="http://www.w3.org/2000/svg" viewBox="0 0 219 59" fill="none" class="svg replaced-svg"><path d="M1.337 5.296a3.97 3.97 0 013.964-3.959h48.47a3.97 3.97 0 013.964 3.96v48.408a3.97 3.97 0 01-3.964 3.959H5.301a3.97 3.97 0 01-3.964-3.959V5.296z" fill="url(#paint0_linear)"></path><path d="M53.771 59H5.301A5.304 5.304 0 010 53.705V5.295A5.304 5.304 0 015.301 0h48.47a5.304 5.304 0 015.302 5.295v48.41A5.298 5.298 0 0153.771 59zM5.301 2.684a2.628 2.628 0 00-2.625 2.622v48.409a2.628 2.628 0 002.625 2.622h48.47a2.628 2.628 0 002.626-2.622V5.295a2.628 2.628 0 00-2.626-2.622H5.301v.01z" fill="#232323"></path><path d="M29.497 19.187c1.03 0 1.904-.833 1.904-1.902V9.727a1.906 1.906 0 00-1.904-1.902 1.88 1.88 0 00-1.905 1.902v7.558c.041 1.028.875 1.902 1.905 1.902zM16.863 14.2a1.897 1.897 0 00-2.697 0 1.891 1.891 0 000 2.694l5.343 5.336c.752.75 1.936.75 2.697 0a1.891 1.891 0 000-2.694L16.863 14.2zM19.2 29.346c0-1.029-.833-1.738-1.904-1.738H9.688c-1.03 0-1.905.71-1.905 1.738s.834 1.737 1.905 1.737h7.567c1.07.042 1.946-.668 1.946-1.737zm3.006 7.516a1.897 1.897 0 00-2.697 0l-5.343 5.336a1.891 1.891 0 000 2.694c.751.75 1.935.75 2.697 0l5.343-5.336c.752-.72.752-1.985 0-2.694zm17.389-.001a1.897 1.897 0 00-2.698 0 1.891 1.891 0 000 2.694l5.343 5.337c.752.75 1.936.75 2.698 0a1.891 1.891 0 000-2.694l-5.343-5.337zm9.823-9.253H41.81c-1.03 0-1.905.71-1.905 1.738s.834 1.737 1.905 1.737h7.567c1.03 0 1.905-.71 1.905-1.737.03-1.029-.834-1.738-1.864-1.738zM36.897 22.23c.752.75 1.936.75 2.698 0l5.343-5.336a1.891 1.891 0 000-2.694 1.897 1.897 0 00-2.698 0l-5.343 5.336a1.891 1.891 0 000 2.694zm-1.585 7.393a6.08 6.08 0 01-.432 2.211 5.037 5.037 0 01-1.267 1.861 6.042 6.042 0 01-1.863 1.265c-.71.277-1.42.432-2.213.432a6.1 6.1 0 01-2.214-.432 5.043 5.043 0 01-1.863-1.265 6.034 6.034 0 01-1.267-1.86 5.916 5.916 0 01-.432-2.212c0-.75.154-1.5.432-2.21s.71-1.347 1.267-1.861a6.04 6.04 0 011.863-1.265 5.935 5.935 0 012.213-.432 6.1 6.1 0 012.214.432c.71.277 1.349.71 1.864 1.265a6.032 6.032 0 011.266 1.86c.278.71.432 1.42.432 2.211zm-5.961 9.697c-1.925 0-3.541 1.634-3.541 3.588v14.21h7.124v-14.21c-.02-1.933-1.657-3.589-3.583-3.589zm42.477 2.035c-.752-.75-1.174-1.542-1.174-2.437.052-1.686 1.41-2.807 2.904-2.807.566 0 1.173.185 1.636.607 1.267 1.316 3.47 3.187 6.61 3.187 2.77 0 4.406-1.316 4.406-3.414 0-1.779-1.08-2.53-3.943-3.835l-3.325-1.501c-4.921-2.252-7.505-4.915-7.505-8.895 0-5.202 4.406-8.76 10.264-8.76 4.643 0 7.361 2.149 8.679 3.65.659.7.844 1.409.844 2.016 0 1.593-1.452 2.807-2.903 2.807-.566 0-1.174-.185-1.74-.658-1.266-1.121-2.677-2.2-4.88-2.2-2.255 0-3.84 1.079-3.84 2.991 0 1.543.844 2.293 3.614 3.558l3.52 1.542c5.158 2.293 7.64 4.823 7.64 9.039 0 5.717-4.644 9.274-10.831 9.274-3.645 0-7.67-1.635-9.976-4.164zm56.645-24.585v25.521c0 1.83-1.359 3.229-3.14 3.229-1.832 0-3.191-1.409-3.191-3.229v-15.27l-5.817 9.132c-.896 1.408-1.74 2.015-2.996 2.015-1.215 0-2.11-.607-2.996-2.015l-5.817-9.224v15.362c0 1.83-1.359 3.229-3.14 3.229-1.832 0-3.191-1.409-3.191-3.229v-25.52c0-1.872 1.317-3.28 3.099-3.28 1.359 0 2.254.657 3.325 2.436l8.72 13.82 8.72-13.82c1.122-1.779 1.966-2.437 3.325-2.437 1.782 0 3.099 1.409 3.099 3.28zm32.954 25.706c0 1.686-1.318 3.044-3.099 3.044-1.359 0-2.389-.792-2.996-2.252l-1.318-3.188h-13.085l-1.318 3.188c-.566 1.45-1.596 2.252-2.955 2.252-1.781 0-3.14-1.358-3.14-3.044 0-.473.144-1.028.371-1.686l10.594-25.15c.566-1.41 1.595-2.15 2.996-2.15 1.41 0 2.439.75 2.995 2.15l10.553 25.15c.309.658.402 1.223.402 1.686zm-18.429-7.588h8.905l-4.406-12.082-4.499 12.082zm47.965 7.732c0 1.594-1.359 2.9-2.954 2.9-1.122 0-2.059-.566-2.811-1.635l-6.939-9.83h-5.395V42.3c0 1.83-1.359 3.229-3.14 3.229-1.832 0-3.191-1.409-3.191-3.229V17.233c0-1.83 1.359-3.188 3.233-3.188h8.442c6.609 0 11.108 4.031 11.108 9.923 0 3.743-1.832 6.786-4.828 8.524l5.58 7.722c.566.853.895 1.655.895 2.406zm-18.099-14.148h5.302c2.904 0 4.685-1.738 4.685-4.453 0-2.673-1.833-4.4-4.685-4.4h-5.302v8.852zm29.538 13.819V19.763h-7.361c-1.637 0-2.903-1.265-2.903-2.859 0-1.634 1.266-2.858 2.903-2.858h21.054c1.689 0 2.903 1.213 2.903 2.858 0 1.594-1.266 2.859-2.903 2.859h-7.361V42.29c0 1.83-1.359 3.23-3.191 3.23-1.782 0-3.141-1.41-3.141-3.23z" fill="#232323"></path><defs><linearGradient id="paint0_linear" x1="29.534" y1="1.642" x2="29.534" y2="57.169" gradientUnits="userSpaceOnUse"><stop stop-color="#FFD222"></stop><stop offset="1" stop-color="#F8AB1F"></stop></linearGradient></defs></svg>