<svg width="76" height="20" fill="none" xmlns="http://www.w3.org/2000/svg"><path d="M33.301 0h-2.376c-.478 0-.478.05-.478.528v11.403c0 3.053-1.172 4.884-3.796 4.884-2.623 0-3.795-1.848-3.795-4.884V.528c0-.478 0-.528-.495-.528H20.1c-.496 0-.562.05-.562.528v11.568c0 5.396 2.855 7.904 7.129 7.904 4.274 0 7.129-2.508 7.129-7.904V.528C33.78.066 33.78 0 33.3 0zM6.073 0H.479C0 0 0 .05 0 .528v18.465c0 .479 0 .528.479.528h2.26c.446 0 .495-.05.495-.528v-7.095h2.822c4.192 0 7.046-1.65 7.046-5.974C13.12 1.601 10.264 0 6.072 0zm.23 8.828H3.252V3.07h3.053c2.046 0 3.58.809 3.58 2.855s-1.55 2.904-3.58 2.904zm68.779 7.64h-7.376v-5.313h6.733c.412 0 .478-.05.478-.528V8.614c0-.479-.05-.528-.478-.528h-6.733v-5H75c.478 0 .528-.05.528-.528V.544c0-.478-.05-.528-.528-.528h-9.967c-.495 0-.561.05-.561.528V19.01c0 .478.05.528.56.528H75.1c.495 0 .56-.05.56-.528v-2.096c-.016-.396-.082-.446-.577-.446zM56.27 5.792c0-4.191-2.855-5.776-7.046-5.776h-5.643c-.413 0-.413.05-.413.528V19.01c0 .478 0 .528.413.528h2.326c.495 0 .495-.05.495-.528v-7.344h2.178l3.862 7.575c.132.247.313.313.528.313h2.706c.33 0 .413-.247.28-.478l-3.993-7.789c2.443-.545 4.307-2.31 4.307-5.495zm-6.815 3.036h-3.053V3.07h3.053c2.046 0 3.58.809 3.58 2.855s-1.55 2.904-3.58 2.904z" fill="#000"/></svg>