<?xml version="1.0" encoding="UTF-8"?>
<svg width="133px" height="29px" viewBox="0 0 133 29" version="1.1" xmlns="http://www.w3.org/2000/svg" xmlns:xlink="http://www.w3.org/1999/xlink">
    <!-- Generator: Sketch 62 (91390) - https://sketch.com -->
    <title>Logo</title>
    <desc>Created with Sketch.</desc>
    <g id="🔹__Symbols" stroke="none" stroke-width="1" fill="none" fill-rule="evenodd">
        <g id="UI-/-Menu-Black" transform="translate(-1.000000, 0.000000)" fill="#111821">
            <g id="Menu">
                <g id="Logo" transform="translate(1.000000, 0.000000)">
                    <path d="M28,16.3566083 C28,24.6733294 22.3803312,29 13.9763718,29 C5.66692515,29 0,24.6733294 0,16.6009501 L0,0 L3.79455367,0 L3.79455367,16.395599 C3.79455367,22.5561332 7.63636364,26.0211088 14.0721617,26.0211088 C20.2678466,26.0211088 24.2054463,22.8407655 24.2054463,16.6009501 L24.2054463,0 L28,0 L28,16.3566083 Z M58,19.1138138 L58,0 L54.1291746,0 L54.1291746,19.1528588 C54.1291746,23.6911857 51.3225688,26.0169644 47.4993566,26.0169644 C43.966971,26.0169644 41.8385318,24.586617 39.7577057,21.9341621 L37,23.9332645 C39.1284392,26.8733507 42.371285,29 47.4517434,29 C53.5011949,29 58,25.6889866 58,19.1138138 L58,19.1138138 Z M121.554559,28 L117.656502,28 L117.656502,2.92019848 L107,2.92019848 L107,0 L133,0 L133,2.92019848 L121.554559,2.92019848 L121.554559,28 Z M77.1480777,16.0033093 L98.946636,16.0033093 C99,15.5195158 99,15.0896233 99,14.7149463 C99,6.55224625 94.3208851,0 86.1861233,0 C78.5837004,0 73,6.44312979 73,14.5006573 C73,23.1471508 79.1681017,29 86.7184622,29 C91.9286143,29 95.2788346,26.9070674 98.043352,23.7913323 L95.4922907,21.4814815 C93.257509,23.8426039 90.5997197,25.4004715 86.8251902,25.4004715 C81.9859832,25.4004715 77.732479,22.0191758 77.1480777,16.0033093 L77.1480777,16.0033093 Z M77,13 C77.5398809,7.83479349 81.2158347,4 86.0800559,4 C91.6482394,4 94.5659781,8.19274093 95,13 L77,13 Z" id="Fill-1"></path>
                </g>
            </g>
        </g>
    </g>
</svg>